<svg width="150" height="150" viewBox="0 0 150 150" fill="none" xmlns="http://www.w3.org/2000/svg">
<rect width="150" height="150" fill="white" style="mix-blend-mode:multiply"/>
<path d="M75 98.4375C80.1777 98.4375 84.375 94.2402 84.375 89.0625C84.375 83.8848 80.1777 79.6875 75 79.6875C69.8223 79.6875 65.625 83.8848 65.625 89.0625C65.625 94.2402 69.8223 98.4375 75 98.4375Z" fill="#A3B8C2"/>
<path d="M111.454 86.618C108.558 79.2398 103.56 72.8738 97.0796 68.309C90.5997 63.7441 82.9226 61.1811 75 60.9375C67.0774 61.1811 59.4003 63.7441 52.9204 68.309C46.4404 72.8738 41.4424 79.2398 38.5458 86.618L37.5 89.0625L38.5458 91.507C41.4424 98.8852 46.4404 105.251 52.9204 109.816C59.4003 114.381 67.0774 116.944 75 117.188C82.9226 116.944 90.5997 114.381 97.0796 109.816C103.56 105.251 108.558 98.8852 111.454 91.507L112.5 89.0625L111.454 86.618ZM75 107.812C71.2916 107.812 67.6665 106.713 64.5831 104.653C61.4996 102.592 59.0964 99.6639 57.6773 96.2378C56.2581 92.8117 55.8868 89.0417 56.6103 85.4046C57.3337 81.7674 59.1195 78.4265 61.7417 75.8043C64.364 73.182 67.7049 71.3962 71.3421 70.6728C74.9792 69.9493 78.7492 70.3206 82.1753 71.7398C85.6014 73.1589 88.5298 75.5621 90.5901 78.6456C92.6503 81.729 93.75 85.3541 93.75 89.0625C93.7444 94.0336 91.7672 98.7995 88.2521 102.315C84.737 105.83 79.9711 107.807 75 107.812Z" fill="#A3B8C2"/>
<path d="M126.562 14.0625H23.4375C20.9511 14.0625 18.5665 15.0502 16.8084 16.8084C15.0502 18.5665 14.0625 20.9511 14.0625 23.4375V126.562C14.0625 129.049 15.0502 131.433 16.8084 133.192C18.5665 134.95 20.9511 135.938 23.4375 135.938H126.562C129.049 135.938 131.433 134.95 133.192 133.192C134.95 131.433 135.938 129.049 135.938 126.562V23.4375C135.938 20.9511 134.95 18.5665 133.192 16.8084C131.433 15.0502 129.049 14.0625 126.562 14.0625ZM23.4375 23.4375H126.562V42.1875H23.4375V23.4375ZM23.4375 126.562V51.5625H126.562V126.562H23.4375Z" fill="#A3B8C2"/>
</svg>
