<svg width="42" height="46" viewBox="0 0 42 46" fill="none" xmlns="http://www.w3.org/2000/svg">
<rect width="24" height="24" transform="translate(9 11)" fill="white" style="mix-blend-mode:multiply"/>
<path d="M22.5 32H19.5C19.1022 32 18.7206 31.842 18.4393 31.5607C18.158 31.2794 18 30.8978 18 30.5V24.8075L12.4425 19.25C12.1608 18.97 12.0017 18.5897 12 18.1925V15.5C12 15.1022 12.158 14.7206 12.4393 14.4393C12.7206 14.158 13.1022 14 13.5 14H28.5C28.8978 14 29.2794 14.158 29.5607 14.4393C29.842 14.7206 30 15.1022 30 15.5V18.1925C29.9983 18.5897 29.8392 18.97 29.5575 19.25L24 24.8075V30.5C24 30.8978 23.842 31.2794 23.5607 31.5607C23.2794 31.842 22.8978 32 22.5 32ZM13.5 15.5V18.1925L19.5 24.1925V30.5H22.5V24.1925L28.5 18.1925V15.5H13.5Z" fill="#3C515B"/>
</svg>
