<svg width="21" height="20" viewBox="0 0 21 20" fill="none" xmlns="http://www.w3.org/2000/svg">
<rect width="20" height="20" transform="translate(0.975586)" fill="white" style="mix-blend-mode:multiply"/>
<path d="M10.9756 2.5C11.5937 2.5 12.1978 2.68328 12.7117 3.02666C13.2256 3.37004 13.6262 3.8581 13.8627 4.42911C14.0992 5.00013 14.1611 5.62847 14.0405 6.23466C13.92 6.84085 13.6223 7.39767 13.1853 7.83471C12.7483 8.27175 12.1914 8.56938 11.5852 8.68995C10.9791 8.81053 10.3507 8.74865 9.7797 8.51212C9.20868 8.2756 8.72062 7.87506 8.37724 7.36116C8.03386 6.84725 7.85059 6.24307 7.85059 5.625C7.85059 4.7962 8.17983 4.00134 8.76588 3.41529C9.35193 2.82924 10.1468 2.5 10.9756 2.5ZM10.9756 1.25C10.1103 1.25 9.26443 1.50659 8.54497 1.98732C7.8255 2.46805 7.26475 3.15133 6.93361 3.95076C6.60248 4.75019 6.51584 5.62985 6.68465 6.47852C6.85346 7.32719 7.27014 8.10674 7.88199 8.71859C8.49385 9.33045 9.2734 9.74712 10.1221 9.91594C10.9707 10.0847 11.8504 9.99811 12.6498 9.66697C13.4493 9.33584 14.1325 8.77508 14.6133 8.05562C15.094 7.33615 15.3506 6.49029 15.3506 5.625C15.3506 4.46468 14.8896 3.35188 14.0692 2.53141C13.2487 1.71094 12.1359 1.25 10.9756 1.25Z" fill="white"/>
<path d="M17.2256 18.75H15.9756V15.625C15.9756 15.2146 15.8948 14.8083 15.7377 14.4291C15.5807 14.05 15.3505 13.7055 15.0603 13.4153C14.7701 13.1251 14.4256 12.8949 14.0465 12.7379C13.6673 12.5808 13.261 12.5 12.8506 12.5H9.10059C8.27178 12.5 7.47693 12.8292 6.89088 13.4153C6.30483 14.0013 5.97559 14.7962 5.97559 15.625V18.75H4.72559V15.625C4.72559 14.4647 5.18652 13.3519 6.00699 12.5314C6.82747 11.7109 7.94026 11.25 9.10059 11.25H12.8506C14.0109 11.25 15.1237 11.7109 15.9442 12.5314C16.7646 13.3519 17.2256 14.4647 17.2256 15.625V18.75Z" fill="white"/>
</svg>
